<?xml version="1.0" encoding="UTF-8" standalone="no"?>
<!-- Created with Inkscape (http://www.inkscape.org/) -->

<svg
   version="1.1"
   id="svg1"
   width="1024"
   height="1024"
   viewBox="0 0 1024 1024"
   sodipodi:docname="logo-tarot.svg"
   inkscape:export-filename="logo-tarot.svg"
   inkscape:export-xdpi="96"
   inkscape:export-ydpi="96"
   inkscape:version="1.4 (e7c3feb100, 2024-10-09)"
   xmlns:inkscape="http://www.inkscape.org/namespaces/inkscape"
   xmlns:sodipodi="http://sodipodi.sourceforge.net/DTD/sodipodi-0.dtd"
   xmlns="http://www.w3.org/2000/svg"
   xmlns:svg="http://www.w3.org/2000/svg">
  <defs
     id="defs1" />
  <sodipodi:namedview
     id="namedview1"
     pagecolor="#ffffff"
     bordercolor="#000000"
     borderopacity="0.25"
     inkscape:showpageshadow="2"
     inkscape:pageopacity="0.0"
     inkscape:pagecheckerboard="0"
     inkscape:deskcolor="#d1d1d1"
     inkscape:zoom="0.64847607"
     inkscape:cx="380.12197"
     inkscape:cy="546.66628"
     inkscape:window-width="1600"
     inkscape:window-height="842"
     inkscape:window-x="0"
     inkscape:window-y="0"
     inkscape:window-maximized="1"
     inkscape:current-layer="g2" />
  <g
     inkscape:groupmode="layer"
     inkscape:label="Image"
     id="g1">
    <g
       id="g2"
       transform="translate(3.3908641,2.6424293)">
      <path
         style="fill:#fefefe;opacity:0"
         d="M 0,512 V 0 h 512 512 v 512 512 H 512 0 Z m 404.4433,448.77749 c 0.85618,-1.22237 1.5567,-3.67433 1.5567,-5.44878 0,-6.79011 3.13178,-26.68813 5.18479,-32.94205 5.06083,-15.41633 17.48755,-22.73984 44.81069,-26.40854 4.67252,-0.62738 9.083,-1.62829 9.80107,-2.22423 0.71807,-0.59595 1.1701,-2.45598 1.00452,-4.1334 -0.37145,-3.76287 -2.71082,-4.66934 -18.30107,-7.09136 -22.129,-3.43786 -32.92502,-11.05636 -37.50879,-26.46908 -1.07304,-3.60803 -2.85096,-13.70301 -3.95094,-22.4333 -1.09998,-8.73029 -2.51413,-16.49279 -3.14256,-17.25 -1.47054,-1.77189 -5.36113,-1.77047 -7.1342,0.003 -0.8595,0.8595 -1.84466,6.04165 -2.61396,13.75 -2.50081,25.05785 -5.32176,33.2438 -14.20993,41.23502 -7.14885,6.42744 -15.19577,9.23117 -34.93962,12.17376 -9.85088,1.46815 -13,3.27289 -13,7.45021 0,2.817 2.38568,4.07558 9.68168,5.10762 20.24457,2.86367 34.53975,8.08609 40.65157,14.85115 7.15996,7.92522 9.82175,16.23651 11.70648,36.55289 1.18601,12.78456 2.335,15.5 6.55855,15.5 1.25857,0 2.98883,-1.00013 3.84502,-2.22251 z m 178.76325,-66.31051 c 4.82369,-3.56953 7.07571,-8.888 6.59245,-15.56902 -0.68198,-9.42822 -5.96298,-14.9153 -15.08301,-15.67161 -12.27773,-1.01816 -20.64669,8.66861 -18.29937,21.18087 0.80266,4.27855 4.88692,9.36042 9.0338,11.24037 4.36153,1.97726 14.38979,1.31048 17.75613,-1.18061 z M 711.04436,864.0042 c 4.0208,-1.11701 9.31585,-6.13258 10.89431,-10.3193 4.80731,-12.75099 -5.75193,-26.36921 -18.70349,-24.12183 -11.9282,2.06981 -18.66201,14.80233 -13.34159,25.22677 2.41686,4.73542 5.01087,7.05682 9.79021,8.76135 4.63054,1.65145 6.74334,1.7357 11.36056,0.45301 z M 214.5,788.25878 c 19.53261,-1.14008 88.40182,-0.81734 110,0.51549 11.849,0.7312 20.47235,0.83203 22.91199,0.26789 8.75508,-2.02452 12.6716,-10.54343 8.83489,-19.21694 -2.55967,-5.78657 -5.93829,-7.3779 -21.01639,-9.89873 -14.05384,-2.34959 -19.3954,-4.01103 -25.65181,-7.97873 -5.94635,-3.77106 -9.18212,-7.24644 -12.0551,-12.94776 -5.8267,-11.56287 -8.04571,-27.12058 -7.13154,-50 1.43419,-35.89443 3.45758,-67.65547 9.55602,-150 1.07942,-14.575 3.1255,-44.725 4.54684,-67 1.42134,-22.275 2.91443,-42.28105 3.31798,-44.45788 l 0.73372,-3.95788 5.37614,12.95788 c 2.95688,7.12683 11.11028,26.45788 18.11867,42.95788 7.00838,16.5 17.78629,41.925 23.95089,56.5 6.16461,14.575 15.61398,36.85 20.99862,49.5 5.38463,12.65 18.21107,42.8 28.50319,67 10.29213,24.2 22.32915,52.1 26.74895,62 4.4198,9.9 11.3459,25.54577 15.39134,34.76837 8.74475,19.93584 12.80392,28.12729 16.0427,32.37434 4.72031,6.18981 16.75646,9.03071 26.63673,6.28708 5.64032,-1.56624 10.9589,-7.75052 16.5672,-19.2638 4.64496,-9.53566 22.82677,-51.28964 35.56153,-81.66599 3.1128,-7.425 6.9438,-16.425 8.51332,-20 1.56952,-3.575 5.88212,-13.7 9.58354,-22.5 3.70143,-8.8 12.34967,-29.05 19.21831,-45 24.15086,-56.08181 61.34954,-144.12931 71.39985,-169 2.22256,-5.5 4.86337,-10.85453 5.86846,-11.89896 1.78558,-1.85546 1.84033,-1.8211 2.39016,1.5 0.30949,1.86943 1.9195,28.37396 3.57779,58.89896 1.65829,30.525 3.47056,62.25 4.02726,70.5 1.49498,22.15466 3.77266,65.50345 5.94159,113.08009 2.46457,54.06191 1.85354,62.27114 -5.7112,76.73059 -6.86518,13.12227 -16.04176,17.83341 -40.25164,20.6647 -5.225,0.61105 -11.39457,1.79694 -13.71015,2.6353 -10.98866,3.97848 -11.15698,20.0121 -0.26992,25.71097 3.16214,1.65524 5.35292,1.76451 23.98007,1.19614 11.275,-0.34403 25.60165,-1.05654 31.83701,-1.58335 14.74417,-1.2457 89.57875,-1.22864 117.16299,0.0267 29.71138,1.35216 44.97301,1.28019 47.9036,-0.22589 4.1584,-2.13708 6.48262,-6.265 6.46454,-11.48132 -0.0345,-9.96084 -5.00784,-14.1318 -19.42363,-16.28993 -30.99579,-4.64025 -41.47729,-16.74274 -45.90579,-53.00528 C 772.33647,684.83157 767.39521,621.70656 764.4745,572 c -0.82409,-14.025 -2.18623,-35.175 -3.02697,-47 -5.55667,-78.1549 -7.50696,-126.35259 -5.46418,-135.037 3.47959,-14.79268 10.82055,-21.62124 27.23107,-25.33034 5.7414,-1.29767 11.57255,-3.10219 12.95811,-4.01005 7.10368,-4.65451 6.25583,-17.20829 -1.43946,-21.31351 -3.76868,-2.01049 -3.01845,-1.99829 -57.73307,-0.93875 -21.725,0.4207 -46.925,0.39698 -56,-0.0527 -19.23611,-0.95321 -24.94271,-0.49233 -28.73618,2.32082 -4.06912,3.01757 -6.28336,7.45678 -16.391,32.86155 -10.90165,27.40044 -24.13187,58.82602 -40.83713,97 -6.73918,15.4 -16.08755,36.775 -20.77418,47.5 -4.68662,10.725 -10.08247,22.875 -11.99078,27 -1.90831,4.125 -8.55166,18.75 -14.76299,32.5 -20.31858,44.9791 -29.28931,64.35006 -30.79846,66.50467 l -1.48461,2.11959 -2.00221,-2.81213 C 512.12125,641.76546 507.83737,632.85 503.70274,623.5 c -4.13464,-9.35 -10.76026,-24.2 -14.72362,-33 -10.4648,-23.23543 -45.75195,-102.88004 -48.95787,-110.5 -1.5041,-3.575 -8.01748,-18.2 -14.47418,-32.5 -12.95237,-28.68629 -12.08789,-26.73704 -30.60107,-69 -7.22778,-16.5 -13.96636,-31.35 -14.97464,-33 -1.00827,-1.65 -3.3268,-3.88426 -5.15229,-4.96501 -3.20923,-1.89998 -5.65226,-1.96923 -73.81907,-2.09237 -38.775,-0.07 -73.875,-0.44779 -78,-0.83942 -6.22715,-0.59122 -8.094,-0.40583 -11,1.09236 -4.50679,2.32349 -7.25702,7.55786 -6.63711,12.63206 0.86938,7.11618 5.17133,9.91247 19.45319,12.64466 13.0093,2.48875 20.06222,5.28821 25.59682,10.15997 10.49974,9.24223 13.08396,19.10378 12.1507,46.36775 -1.10156,32.18093 -5.18729,86.21185 -14.63215,193.5 -8.09883,91.99804 -11.17648,109.79756 -21.76788,125.89403 -7.00239,10.642 -20.50263,17.57301 -39.16357,20.10652 -11.11795,1.50944 -14.40535,3.13961 -16.9558,8.40814 -2.46648,5.09507 -2.54212,7.30641 -0.43046,12.58397 1.60492,4.01109 5.06737,7.26016 8.88626,8.33862 2.06488,0.58313 13.44151,0.2442 36,-1.0725 z M 133,682.11461 c 3.94089,-2.72977 7.21451,-9.89701 6.63564,-14.52803 -1.32592,-10.60759 -13.33559,-16.46812 -22.60088,-11.02889 -6.43157,3.77568 -8.8509,12.81282 -5.38528,20.11607 3.57257,7.52864 14.36567,10.27909 21.35052,5.44085 z M 889.2223,632.25 c 0.84276,-0.9625 2.05403,-5.575 2.69171,-10.25 3.95851,-29.02079 7.90686,-33.8758 30.5072,-37.51256 11.77366,-1.89457 12.45705,-2.15421 13.17245,-5.0046 1.03413,-4.12031 -1.05857,-6.12421 -8.31531,-7.96247 -16.86828,-4.27304 -19.92993,-5.46154 -24.55359,-9.53144 -5.82828,-5.13026 -8.20546,-11.25479 -9.73928,-25.09211 -1.76837,-15.95334 -1.88761,-16.49827 -4.03532,-18.44192 -1.56923,-1.42014 -2.58995,-1.61496 -4.64873,-0.88729 -3.264,1.15365 -3.75581,2.82464 -5.27783,17.93239 -1.31526,13.05538 -2.55818,17.70377 -6.1687,23.07026 -3.24396,4.82164 -12.20347,9.03823 -24.37209,11.47016 C 838.165,572.10246 836,573.40944 836,577.57612 c 0,3.15018 3.32862,4.90561 13,6.85589 10.41648,2.10054 16.46027,4.67327 20.83532,8.86921 5.58432,5.35571 7.22104,10.10751 9.19618,26.69878 0.62202,5.225 1.77977,10.5125 2.57278,11.75 1.72801,2.6966 5.47914,2.9428 7.61802,0.5 z M 168.21275,549.13758 c 3.67641,-3.94131 4.31484,-5.98091 3.79928,-12.13758 -0.54574,-6.51709 -8.84366,-12.88367 -15.14851,-11.6227 -10.04781,2.00956 -15.10169,13.64716 -9.71301,22.36622 2.73181,4.42018 7.06747,6.40682 12.81224,5.87068 3.66138,-0.3417 5.14281,-1.14555 8.25,-4.47662 z M 144.78644,420.22036 c 5.50128,-3.60458 6.97282,-13.30576 2.93096,-19.32248 -4.4539,-6.63009 -14.63701,-7.62202 -20.8901,-2.03488 -5.58138,4.98696 -5.00969,16.8218 1.00291,20.7614 5.37009,3.51862 12.13292,3.75631 16.95623,0.59596 z m 728.1519,-4.04763 c 9.21198,-4.94044 9.30643,-19.89207 0.15554,-24.62418 -3.54829,-1.83489 -10.71253,-1.97189 -13.75989,-0.26311 -6.42973,3.6054 -9.14025,13.16442 -5.56826,19.63729 C 856.03242,415.03024 861.16615,418 866,418 c 1.94216,0 5.06441,-0.82227 6.93834,-1.82727 z m -57.87048,-98.34626 c 3.05645,-1.39929 8.45404,-5.23367 11.99466,-8.52084 5.72459,-5.31483 7.15729,-6.12251 12.93748,-7.29347 7.6655,-1.55288 12.61716,-3.85911 17.51042,-8.15545 9.00011,-7.90221 13.74739,-23.35389 10.77607,-35.07448 -1.39962,-5.52088 -1.36064,-5.93996 1.13199,-12.17055 2.98004,-7.44894 3.18041,-11.63095 1.04428,-21.7963 -2.23789,-10.64964 -8.24358,-22.3565 -14.98102,-29.20244 -4.46814,-4.54011 -5.90648,-6.82344 -7.04023,-11.17619 -2.24387,-8.6148 -5.82631,-14.65277 -12.17089,-20.51322 -5.68921,-5.25509 -7.6705,-6.49676 -17.31453,-10.8509 -3.20724,-1.44802 -5.40494,-3.41369 -7.4709,-6.68212 -7.16516,-11.3356 -26.12715,-24.80941 -39.37271,-27.97706 -18.95121,-4.53213 -40.42069,2.74688 -49.52994,16.79263 -1.07098,1.65137 -5.0374,4.29486 -10.17667,6.7824 -16.04344,7.76547 -26.19057,21.65959 -28.947,39.63615 -0.7485,4.88145 -1.38295,8.88948 -1.40989,8.90673 -0.0269,0.0172 -2.18648,2.277 -4.79898,5.02168 -6.09346,6.40176 -9.27951,14.99607 -9.24825,24.94696 0.0403,12.83302 4.73503,24.59138 14.94645,37.43485 3.17174,3.98927 7.70576,10.92341 10.0756,15.40919 11.69273,22.13276 15.65765,24.94208 45.33454,32.12148 16.17249,3.91243 36.50629,10.09672 39.71195,12.07792 3.62328,2.23931 11.27002,3.37646 20.93506,3.11326 8.7434,-0.23809 11.43738,-0.71278 16.06251,-2.83023 z M 788,303.53086 c -3.575,-0.76938 -11.9,-3.19924 -18.5,-5.3997 -6.6,-2.20046 -19.138,-5.59967 -27.86223,-7.5538 -8.87031,-1.98685 -17.37964,-4.49078 -19.30471,-5.68054 -4.22077,-2.60857 -9.64657,-9.81101 -15.36549,-20.39682 -2.37708,-4.4 -5.32828,-9.35 -6.55822,-11 -5.12271,-6.87224 -11.46779,-18.88192 -13.48547,-25.52469 -2.35714,-7.76039 -2.12294,-13.13688 0.78682,-18.06272 4.44303,-7.52144 10.44821,-2.23086 17.38633,15.31739 1.19328,3.01809 2.89443,11.67967 3.98107,20.27002 1.0436,8.25 2.15345,16.19084 2.46635,17.64631 1.21265,5.64068 6.79969,7.31503 8.03154,2.40693 0.97072,-3.86764 -0.51018,-33.762 -2.02105,-40.79808 -1.67001,-7.77725 -7.65289,-19.81064 -13.79958,-27.75516 -3.90312,-5.04474 -4.24328,-5.95526 -4.10937,-11 0.15805,-5.9545 1.76228,-10.27688 6.10655,-16.45329 C 709.51525,164.19713 718.52237,157 721.4546,157 c 2.04946,0 2.53013,0.70154 3.4639,5.0556 0.59633,2.78058 1.78852,11.44069 2.64932,19.24469 1.64844,14.94479 2.87267,18.0699 6.85302,17.49373 3.10418,-0.44934 3.80929,-6.81417 3.02373,-27.29402 -1.07331,-27.98145 -1.32917,-25.30122 2.77427,-29.06174 2.00607,-1.83843 5.95435,-4.00615 8.8784,-4.8745 11.72729,-3.48263 12.76415,-2.00799 11.03488,15.69394 -0.65777,6.73327 -2.52985,18.9923 -4.16019,27.2423 -1.63033,8.25 -2.96597,16.25162 -2.96809,17.78138 -0.004,3.23061 2.3014,4.54011 4.61437,2.62052 5.04597,-4.18779 12.02248,-29.19346 15.14804,-54.2946 1.18166,-9.48984 5.18805,-10.05025 14.1629,-1.98109 10.16983,9.14355 10.92794,14.29687 4.48887,30.51339 -5.61872,14.15048 -11.02609,23.32643 -30.19695,51.24216 -5.60767,8.16563 -5.69752,9.56596 -0.61613,9.60293 6.59384,0.048 34.46529,-39.20423 42.78267,-60.25211 2.12286,-5.37208 4.18382,-9.96771 4.57991,-10.21251 1.97547,-1.2209 8.32406,2.0218 13.20321,6.74387 10.10495,9.77961 11.34456,16.74148 4.74157,26.62954 -9.30448,13.93356 -35.16714,37.96684 -61.10715,56.78477 C 751.03731,265.666 750.27853,266.42576 752,268.5 c 1.85098,2.23029 3.10705,1.92574 12.5087,-3.03287 18.45576,-9.73395 43.96929,-29.64263 64.22947,-50.11947 C 834.36916,209.65644 839.49103,205 840.12009,205 c 1.87221,0 7.48262,6.55384 10.01745,11.70195 3.2635,6.62801 3.41492,19.71753 0.2773,23.9712 -3.19313,4.32893 -21.80552,13.15409 -40.41484,19.1629 -19.01624,6.14021 -23.5,8.07984 -23.5,10.16589 0,4.07324 15.63012,1.66078 46.79198,-7.22217 16.68083,-4.75501 17.99441,-4.62908 18.5306,1.77644 0.79648,9.51496 -5.08344,18.61489 -13.84658,21.42935 -3.06205,0.98344 -11.42569,1.60765 -26.476,1.976 -21.65992,0.53012 -22.0048,0.57218 -22.31068,2.72078 -0.47931,3.36679 2.89289,4.48519 15.63396,5.18507 7.42393,0.40781 11.65397,1.04971 11.90431,1.80647 0.21358,0.64563 -1.69642,2.39563 -4.24446,3.88887 -5.66476,3.31977 -14.79283,4.05354 -24.48313,1.96811 z M 318.25618,280.26089 c 14.60161,-6.83292 22.27341,-19.0537 13.67456,-21.78287 -1.17843,-0.37402 -4.28301,0.73956 -8.2558,2.96127 -3.92046,2.19245 -7.71387,3.56071 -9.87182,3.56071 -11.95602,0 -14.61039,-4.88275 -27.18102,-50 -14.38806,-51.64014 -17.06421,-59.46532 -23.705,-69.31439 -8.33307,-12.35893 -12.22036,-14.91415 -26.3107,-17.29469 -19.2025,-3.24424 -31.75173,1.92526 -29.21446,12.03455 0.9017,3.59265 5.79377,5.57453 13.76022,5.57453 8.44194,0 13.80642,2.67421 17.6653,8.8062 6.59396,10.47821 6.91127,20.68658 0.8992,28.92879 -1.91165,2.62075 -7.59865,11.66605 -12.63778,20.10065 -5.03914,8.43461 -14.74699,24.4704 -21.57302,35.6351 -20.23139,33.09062 -21.13741,34.84773 -19.65089,38.1103 1.47723,3.24217 4.87522,4.41896 12.75979,4.41896 10.33414,0 10.90164,-0.54925 20.87157,-20.2006 C 237.27363,226.73952 250.73096,203 252.8182,203 c 1.15435,0 4.73372,10.0404 11.6911,32.79444 9.25365,30.26397 13.32409,38.55021 21.45986,43.68609 5.63923,3.55989 9.68096,4.48918 18.10741,4.1633 5.97155,-0.23093 8.97537,-0.94758 14.17961,-3.38294 z m 282.7138,-11.5402 C 604.8606,266.75202 608,261.29461 608,256.5 c 0,-4.79461 -3.1394,-10.25202 -7.03002,-12.22069 -3.7172,-1.88093 -10.99383,-1.56217 -14.60494,0.63977 -4.45624,2.71728 -6.89757,9.38955 -5.42988,14.84013 1.64265,6.10034 6.85042,10.2448 12.84964,10.22605 2.59336,-0.008 5.82669,-0.57717 7.18518,-1.26457 z M 488.95071,255.02638 c 2.35629,-1.26105 2.62401,-2.51623 4.56652,-21.4102 2.52215,-24.53168 6.38597,-36.75034 14.15641,-44.76708 6.62616,-6.83621 24.1454,-13.05435 40.46534,-14.36245 14.69075,-1.17752 18.12395,-2.93213 16.39515,-8.3791 -0.78627,-2.47734 -3.68863,-3.48271 -17.52832,-6.07176 -38.72589,-7.24461 -48.35205,-17.35106 -51.98475,-54.57847 C 492.49761,79.597353 491.96874,78 485.93019,78 c -3.54115,0 -4.59814,2.884785 -5.38244,14.690067 -1.64552,24.768163 -6.18502,41.104953 -13.86826,49.909223 -6.95074,7.9649 -21.57877,13.83139 -43.17949,17.3169 -14.51927,2.34283 -15.35072,2.64086 -16.13987,5.78509 -1.15165,4.58851 2.00476,6.28269 14.74592,7.91478 40.97744,5.24903 52.26622,17.22294 55.92899,59.32342 1.50797,17.33284 1.80683,18.90239 4.02074,21.1163 2.15447,2.15447 4.1563,2.43627 6.89493,0.9706 z M 664.79966,130.59501 c 5.35539,-2.7864 7.54372,-6.19413 7.99639,-12.45216 0.40903,-5.65477 0.303,-5.95451 -3.53235,-9.9863 C 665.61415,104.32007 664.90891,104 660.10518,104 c -6.31052,0 -10.54119,2.02706 -13.14566,6.29855 -4.55036,7.46284 -0.83644,17.55579 7.54048,20.49201 4.23334,1.48385 7.17942,1.42791 10.29966,-0.19555 z"
         id="path3" />
      <path
         style="fill:#8a719e;fill-opacity:1"
         d="m 396.73147,961.25 c -1.08653,-1.20458 -1.92547,-5.49005 -2.69174,-13.75 -1.88473,-20.31638 -4.54652,-28.62767 -11.70648,-36.55289 -6.11182,-6.76506 -20.407,-11.98748 -40.65157,-14.85115 -7.296,-1.03204 -9.68168,-2.29062 -9.68168,-5.10762 0,-4.17732 3.14912,-5.98206 13,-7.45021 19.74385,-2.94259 27.79077,-5.74632 34.93962,-12.17376 8.88817,-7.99122 11.70912,-16.17717 14.20993,-41.23502 0.7693,-7.70835 1.75446,-12.8905 2.61396,-13.75 1.77307,-1.77307 5.66366,-1.77449 7.1342,-0.003 0.62843,0.75721 2.04258,8.51971 3.14256,17.25 1.09998,8.73029 2.8779,18.82527 3.95094,22.4333 4.58377,15.41272 15.37979,23.03122 37.50879,26.46908 15.59025,2.42202 17.92962,3.32849 18.30107,7.09136 0.16558,1.67742 -0.28645,3.53745 -1.00452,4.1334 -0.71807,0.59594 -5.12855,1.59685 -9.80107,2.22423 -27.32314,3.6687 -39.74986,10.99221 -44.81069,26.40854 C 409.13178,928.64058 406,948.5386 406,955.32871 c 0,6.45501 -5.57469,10.01645 -9.26853,5.92129 z m 168.71895,-65.60241 c -4.14688,-1.87995 -8.23114,-6.96182 -9.0338,-11.24037 -2.34732,-12.51226 6.02164,-22.19903 18.29937,-21.18087 9.12003,0.75631 14.40103,6.24339 15.08301,15.67161 0.48326,6.68102 -1.76876,11.99949 -6.59245,15.56902 -3.36634,2.49109 -13.3946,3.15787 -17.75613,1.18061 z m 134.23338,-32.0964 c -4.77934,-1.70453 -7.37335,-4.02593 -9.79021,-8.76135 -8.71924,-17.08384 14.57994,-34.29579 27.83018,-20.55916 7.22408,7.48926 7.2279,18.04536 0.009,25.5291 -4.80803,4.9846 -11.03563,6.29277 -18.04922,3.79141 z M 178.5,789.33128 c -3.81889,-1.07846 -7.28134,-4.32753 -8.88626,-8.33862 -2.11166,-5.27756 -2.03602,-7.4889 0.43046,-12.58397 2.55045,-5.26853 5.83785,-6.8987 16.9558,-8.40814 18.66094,-2.53351 32.16118,-9.46452 39.16357,-20.10652 10.5914,-16.09647 13.66905,-33.89599 21.76788,-125.89403 9.44486,-107.28815 13.53059,-161.31907 14.63215,-193.5 0.93326,-27.26397 -1.65096,-37.12552 -12.1507,-46.36775 -5.5346,-4.87176 -12.58752,-7.67122 -25.59682,-10.15997 -14.28186,-2.73219 -18.58381,-5.52848 -19.45319,-12.64466 -0.61991,-5.0742 2.13032,-10.30857 6.63711,-12.63206 2.906,-1.49819 4.77285,-1.68358 11,-1.09236 4.125,0.39163 39.225,0.76937 78,0.83942 68.16681,0.12314 70.60984,0.19239 73.81907,2.09237 1.82549,1.08075 4.14402,3.31501 5.15229,4.96501 1.00828,1.65 7.74686,16.5 14.97464,33 18.51318,42.26296 17.6487,40.31371 30.60107,69 6.4567,14.3 12.97008,28.925 14.47418,32.5 3.20592,7.61996 38.49307,87.26457 48.95787,110.5 3.96336,8.8 10.58898,23.65 14.72362,33 4.13463,9.35 8.41851,18.26546 9.51972,19.81213 l 2.00221,2.81213 1.48461,-2.11959 c 1.50915,-2.15461 10.47988,-21.52557 30.79846,-66.50467 6.21133,-13.75 12.85468,-28.375 14.76299,-32.5 1.90831,-4.125 7.30416,-16.275 11.99078,-27 4.68663,-10.725 14.035,-32.1 20.77418,-47.5 16.70526,-38.17398 29.93548,-69.59956 40.83713,-97 10.10764,-25.40477 12.32188,-29.84398 16.391,-32.86155 3.79347,-2.81315 9.50007,-3.27403 28.73618,-2.32082 9.075,0.4497 34.275,0.47342 56,0.0527 54.71462,-1.05954 53.96439,-1.07174 57.73307,0.93875 7.69529,4.10522 8.54314,16.659 1.43946,21.31351 -1.38556,0.90786 -7.21671,2.71238 -12.95811,4.01005 -16.41052,3.7091 -23.75148,10.53766 -27.23107,25.33034 -2.04278,8.68441 -0.0925,56.8821 5.46418,135.037 0.84074,11.825 2.20288,32.975 3.02697,47 2.92071,49.70656 7.86197,112.83157 10.56422,134.95873 4.4285,36.26254 14.91,48.36503 45.90579,53.00528 14.41579,2.15813 19.38912,6.32909 19.42363,16.28993 0.0181,5.21632 -2.30614,9.34424 -6.46454,11.48132 -2.93059,1.50608 -18.19222,1.57805 -47.9036,0.22589 -27.58424,-1.25535 -102.41882,-1.27241 -117.16299,-0.0267 -6.23536,0.52681 -20.56201,1.23932 -31.83701,1.58335 -18.62715,0.56837 -20.81793,0.4591 -23.98007,-1.19614 -10.88706,-5.69887 -10.71874,-21.73249 0.26992,-25.71097 2.31558,-0.83836 8.48515,-2.02425 13.71015,-2.6353 24.20988,-2.83129 33.38646,-7.54243 40.25164,-20.6647 7.56474,-14.45945 8.17577,-22.66868 5.7112,-76.73059 -2.16893,-47.57664 -4.44661,-90.92543 -5.94159,-113.08009 -0.5567,-8.25 -2.36897,-39.975 -4.02726,-70.5 -1.65829,-30.525 -3.2683,-57.02953 -3.57779,-58.89896 -0.54983,-3.3211 -0.60458,-3.35546 -2.39016,-1.5 -1.00509,1.04443 -3.6459,6.39896 -5.86846,11.89896 -10.05031,24.87069 -47.24899,112.91819 -71.39985,169 -6.86864,15.95 -15.51688,36.2 -19.21831,45 -3.70142,8.8 -8.01402,18.925 -9.58354,22.5 -1.56952,3.575 -5.40052,12.575 -8.51332,20 -12.73476,30.37635 -30.91657,72.13033 -35.56153,81.66599 -5.6083,11.51328 -10.92688,17.69756 -16.5672,19.2638 -9.88027,2.74363 -21.91642,-0.0973 -26.63673,-6.28708 -3.23878,-4.24705 -7.29795,-12.4385 -16.0427,-32.37434 C 443.58896,740.04577 436.66286,724.4 432.24306,714.5 c -4.4198,-9.9 -16.45682,-37.8 -26.74895,-62 -10.29212,-24.2 -23.11856,-54.35 -28.50319,-67 -5.38464,-12.65 -14.83401,-34.925 -20.99862,-49.5 -6.1646,-14.575 -16.94251,-40 -23.95089,-56.5 -7.00839,-16.5 -15.16179,-35.83105 -18.11867,-42.95788 l -5.37614,-12.95788 -0.73372,3.95788 c -0.40355,2.17683 -1.89664,22.18288 -3.31798,44.45788 -1.42134,22.275 -3.46742,52.425 -4.54684,67 -6.09844,82.34453 -8.12183,114.10557 -9.55602,150 -0.91417,22.87942 1.30484,38.43713 7.13154,50 2.87298,5.70132 6.10875,9.1767 12.0551,12.94776 6.25641,3.9677 11.59797,5.62914 25.65181,7.97873 15.0781,2.52083 18.45672,4.11216 21.01639,9.89873 3.83671,8.67351 -0.0798,17.19242 -8.83489,19.21694 -2.43964,0.56414 -11.06299,0.46331 -22.91199,-0.26789 -21.59818,-1.33283 -90.46739,-1.65557 -110,-0.51549 -22.55849,1.3167 -33.93512,1.65563 -36,1.0725 z M 121.27505,684.03883 c -4.75063,-1.14309 -7.76899,-3.45262 -9.62557,-7.36507 -5.10581,-10.75969 1.82251,-22.05838 13.52612,-22.05838 11.12856,0 17.84164,11.32911 12.63681,21.32608 -3.66638,7.04203 -9.35251,9.8262 -16.53736,8.09737 z M 881.60428,631.75 c -0.79301,-1.2375 -1.95076,-6.525 -2.57278,-11.75 -1.97514,-16.59127 -3.61186,-21.34307 -9.19618,-26.69878 -4.37505,-4.19594 -10.41884,-6.76867 -20.83532,-8.86921 -9.67138,-1.95028 -13,-3.70571 -13,-6.85589 0,-4.16668 2.165,-5.47366 12.48281,-7.5357 12.16862,-2.43193 21.12813,-6.64852 24.37209,-11.47016 3.61052,-5.36649 4.85344,-10.01488 6.1687,-23.07026 1.52202,-15.10775 2.01383,-16.77874 5.27783,-17.93239 2.05878,-0.72767 3.0795,-0.53285 4.64873,0.88729 2.14771,1.94365 2.26695,2.48858 4.03532,18.44192 1.53382,13.83732 3.911,19.96185 9.73928,25.09211 4.62366,4.0699 7.68531,5.2584 24.55359,9.53144 7.25674,1.83826 9.34944,3.84216 8.31531,7.96247 -0.7154,2.85039 -1.39879,3.11003 -13.17245,5.0046 -22.60034,3.63676 -26.54869,8.49177 -30.5072,37.51256 -0.63768,4.675 -1.84895,9.2875 -2.69171,10.25 -2.13888,2.4428 -5.89001,2.1966 -7.61802,-0.5 z M 152.40051,552.6269 c -9.06389,-4.10511 -9.94563,-18.54224 -1.49976,-24.55623 4.57416,-3.25709 8.37205,-3.60111 13.31877,-1.20645 4.55439,2.20474 7.443,5.96198 7.79251,10.13578 0.51556,6.15667 -0.12287,8.19627 -3.79928,12.13758 -3.10719,3.33107 -4.58862,4.13492 -8.25,4.47662 -2.58381,0.24114 -5.76772,-0.17454 -7.56224,-0.9873 z M 133.47908,422.08056 c -7.7568,-1.88536 -11.04863,-6.80131 -10.23367,-15.28275 0.40185,-4.18222 1.09126,-5.70943 3.58189,-7.93481 9.08801,-8.12014 23.1727,-2.14256 23.1727,9.83454 0,9.66199 -7.34632,15.61299 -16.52092,13.38302 z m 725.58258,-5.90783 c -9.23365,-4.95206 -9.07285,-19.64709 0.27233,-24.88729 3.04736,-1.70878 10.2116,-1.57178 13.75989,0.26311 9.15089,4.73211 9.05644,19.68374 -0.15554,24.62418 C 871.06441,417.17773 867.94216,418 866,418 c -1.94216,0 -5.06441,-0.82227 -6.93834,-1.82727 z m -75.18879,-96.56638 c -2.54492,-0.73504 -5.15608,-1.66335 -5.80258,-2.06291 -3.20566,-1.9812 -23.53946,-8.16549 -39.71195,-12.07792 -29.67689,-7.1794 -33.64181,-9.98872 -45.33454,-32.12148 -2.36984,-4.48578 -6.90386,-11.41992 -10.0756,-15.40919 -10.21142,-12.84347 -14.90614,-24.60183 -14.94645,-37.43485 -0.0313,-9.95089 3.15479,-18.5452 9.24825,-24.94696 2.6125,-2.74468 4.77204,-5.00444 4.79898,-5.02168 0.0269,-0.0173 0.66139,-4.02528 1.40989,-8.90673 2.75643,-17.97656 12.90356,-31.87068 28.947,-39.63615 5.13927,-2.48754 9.10569,-5.13103 10.17667,-6.7824 9.10925,-14.04575 30.57873,-21.32476 49.52994,-16.79263 13.24556,3.16765 32.20755,16.64146 39.37271,27.97706 2.06596,3.26843 4.26366,5.2341 7.4709,6.68212 9.64403,4.35414 11.62532,5.59581 17.31453,10.8509 6.34458,5.86045 9.92702,11.89842 12.17089,20.51322 1.13375,4.35275 2.57209,6.63608 7.04023,11.17619 6.73744,6.84594 12.74313,18.5528 14.98102,29.20244 2.13613,10.16535 1.93576,14.34736 -1.04428,21.7963 -2.49263,6.23059 -2.53161,6.64967 -1.13199,12.17055 2.97132,11.72059 -1.77596,27.17227 -10.77607,35.07448 -4.89326,4.29634 -9.84492,6.60257 -17.51042,8.15545 -5.78019,1.17096 -7.21289,1.97864 -12.93748,7.29347 -9.37711,8.70589 -15.03913,10.99657 -28.05717,11.35107 -6.63005,0.18055 -12.21225,-0.20691 -15.13248,-1.05035 z m 28.61026,-18.0436 c 2.54804,-1.49324 4.45804,-3.24324 4.24446,-3.88887 -0.25034,-0.75676 -4.48038,-1.39866 -11.90431,-1.80647 -12.74107,-0.69988 -16.11327,-1.81828 -15.63396,-5.18507 0.30588,-2.1486 0.65076,-2.19066 22.31068,-2.72078 15.05031,-0.36835 23.41395,-0.99256 26.476,-1.976 8.76314,-2.81446 14.64306,-11.91439 13.84658,-21.42935 -0.53619,-6.40552 -1.84977,-6.53145 -18.5306,-1.77644 -31.16186,8.88295 -46.79198,11.29541 -46.79198,7.22217 0,-2.08605 4.48376,-4.02568 23.5,-10.16589 18.60932,-6.00881 37.22171,-14.83397 40.41484,-19.1629 3.13762,-4.25367 2.9862,-17.34319 -0.2773,-23.9712 C 847.60271,211.55384 841.9923,205 840.12009,205 c -0.62906,0 -5.75093,4.65644 -11.38192,10.34766 -20.26018,20.47684 -45.77371,40.38552 -64.22947,50.11947 -9.40165,4.95861 -10.65772,5.26316 -12.5087,3.03287 -1.72147,-2.07424 -0.96269,-2.834 12.80515,-12.82175 25.94001,-18.81793 51.80267,-42.85121 61.10715,-56.78477 6.60299,-9.88806 5.36338,-16.84993 -4.74157,-26.62954 -4.87915,-4.72207 -11.22774,-7.96477 -13.20321,-6.74387 -0.39609,0.2448 -2.45705,4.84043 -4.57991,10.21251 -8.31738,21.04788 -36.18883,60.30008 -42.78267,60.25211 -5.08139,-0.037 -4.99154,-1.4373 0.61613,-9.60293 19.17086,-27.91573 24.57823,-37.09168 30.19695,-51.24216 6.43907,-16.21652 5.68096,-21.36984 -4.48887,-30.51339 -8.97485,-8.06916 -12.98124,-7.50875 -14.1629,1.98109 -3.12556,25.10114 -10.10207,50.10681 -15.14804,54.2946 -2.31297,1.91959 -4.61883,0.61009 -4.61437,-2.62052 0.002,-1.52976 1.33776,-9.53138 2.96809,-17.78138 1.63034,-8.25 3.50242,-20.50903 4.16019,-27.2423 1.72927,-17.70193 0.69241,-19.17657 -11.03488,-15.69394 -2.92405,0.86835 -6.87233,3.03607 -8.8784,4.8745 -4.10344,3.76052 -3.84758,1.08029 -2.77427,29.06174 0.78556,20.47985 0.0805,26.84468 -3.02373,27.29402 -3.98035,0.57617 -5.20458,-2.54894 -6.85302,-17.49373 -0.8608,-7.804 -2.05299,-16.46411 -2.64932,-19.24469 -0.93377,-4.35406 -1.41444,-5.0556 -3.4639,-5.0556 -2.93223,0 -11.93935,7.19713 -15.70206,12.54671 -4.34427,6.17641 -5.9485,10.49879 -6.10655,16.45329 -0.13391,5.04474 0.20625,5.95526 4.10937,11 6.14669,7.94452 12.12957,19.97791 13.79958,27.75516 1.51087,7.03608 2.99177,36.93044 2.02105,40.79808 -1.23185,4.9081 -6.81889,3.23375 -8.03154,-2.40693 -0.3129,-1.45547 -1.42275,-9.39631 -2.46635,-17.64631 -1.08664,-8.59035 -2.78779,-17.25193 -3.98107,-20.27002 -6.93812,-17.54825 -12.9433,-22.83883 -17.38633,-15.31739 -2.90976,4.92584 -3.14396,10.30233 -0.78682,18.06272 2.01768,6.64277 8.36276,18.65245 13.48547,25.52469 1.22994,1.65 4.18114,6.6 6.55822,11 5.71892,10.58581 11.14472,17.78825 15.36549,20.39682 1.92507,1.18976 10.4344,3.69369 19.30471,5.68054 8.72423,1.95413 21.26223,5.35334 27.86223,7.5538 22.94781,7.65087 34.24453,8.55276 42.98313,3.43159 z M 293.13946,282.91118 c -4.9329,-1.50554 -10.62456,-5.36955 -13.54043,-9.19245 -4.29081,-5.62555 -8.27768,-15.64555 -15.08973,-37.92429 C 257.55192,213.0404 253.97255,203 252.8182,203 c -2.08724,0 -15.54457,23.73952 -33.33187,58.7994 C 209.5164,281.45075 208.9489,282 198.61476,282 c -7.88457,0 -11.28256,-1.17679 -12.75979,-4.41896 -1.48652,-3.26257 -0.5805,-5.01968 19.65089,-38.1103 6.82603,-11.1647 16.53388,-27.20049 21.57302,-35.6351 5.03913,-8.4346 10.72613,-17.4799 12.63778,-20.10065 6.01207,-8.24221 5.69476,-18.45058 -0.8992,-28.92879 C 234.95858,148.67421 229.5941,146 221.15216,146 c -7.96645,0 -12.85852,-1.98188 -13.76022,-5.57453 -2.53727,-10.10929 10.01196,-15.27879 29.21446,-12.03455 14.09034,2.38054 17.97763,4.93576 26.3107,17.29469 6.64079,9.84907 9.31694,17.67425 23.705,69.31439 12.57063,45.11725 15.225,50 27.18102,50 2.15795,0 5.95136,-1.36826 9.87182,-3.56071 3.97279,-2.22171 7.07737,-3.33529 8.2558,-2.96127 8.59885,2.72917 0.92705,14.94995 -13.67456,21.78287 -5.20424,2.43536 -8.20806,3.15201 -14.17961,3.38294 -4.16711,0.16115 -9.08881,-0.16854 -10.93711,-0.73265 z m 292.40928,-16.00253 c -4.88321,-4.28751 -6.27577,-9.71643 -4.01249,-15.64275 2.10713,-5.51743 6.25571,-8.2626 12.46375,-8.24742 5.67145,0.0139 8.82672,1.60065 11.71998,5.89397 4.33072,6.42635 1.93263,16.42679 -4.75,19.80824 -1.35849,0.6874 -4.59182,1.25646 -7.18518,1.26457 -3.85596,0.0121 -5.35681,-0.54859 -8.23606,-3.07661 z M 482.05578,254.05578 c -2.21391,-2.21391 -2.51277,-3.78346 -4.02074,-21.1163 -3.66277,-42.10048 -14.95155,-54.07439 -55.92899,-59.32342 -12.74116,-1.63209 -15.89757,-3.32627 -14.74592,-7.91478 0.78915,-3.14423 1.6206,-3.44226 16.13987,-5.78509 37.72523,-6.08737 49.59571,-16.10112 54.46468,-45.94553 1.08488,-6.64979 2.24726,-16.226056 2.58307,-21.280593 C 481.33205,80.884785 482.38904,78 485.93019,78 c 6.03855,0 6.56742,1.597353 9.09087,27.45732 3.6327,37.22741 13.25886,47.33386 51.98475,54.57847 13.83969,2.58905 16.74205,3.59442 17.52832,6.07176 1.7288,5.44697 -1.7044,7.20158 -16.39515,8.3791 -16.31994,1.3081 -33.83918,7.52624 -40.46534,14.36245 -7.77044,8.01674 -11.63426,20.2354 -14.15641,44.76708 -1.94251,18.89397 -2.21023,20.14915 -4.56652,21.4102 -2.73863,1.46567 -4.74046,1.18387 -6.89493,-0.9706 z M 654.5,130.79056 c -8.37692,-2.93622 -12.09084,-13.02917 -7.54048,-20.49201 2.60447,-4.27149 6.83514,-6.29855 13.14566,-6.29855 4.80373,0 5.50897,0.32007 9.15852,4.15655 3.83535,4.03179 3.94138,4.33153 3.53235,9.9863 -0.31996,4.42339 -1.00963,6.45908 -2.85887,8.43847 -4.79151,5.12873 -9.30377,6.35909 -15.43718,4.20924 z"
         id="path2" />
    </g>
  </g>
</svg>
