<svg version="1.1" viewBox="0.0 0.0 600.0 371.0" fill="none" stroke="none" stroke-linecap="square" stroke-miterlimit="10" width="600" height="371" xmlns:xlink="http://www.w3.org/1999/xlink" xmlns="http://www.w3.org/2000/svg"><path fill="#ffffff" d="M0 0L600.0 0L600.0 371.0L0 371.0L0 0Z" fill-rule="nonzero"/><path stroke="#cccccc" stroke-width="1.0" stroke-linecap="butt" d="M79.5 25.5L79.5 332.5" fill-rule="nonzero"/><path stroke="#cccccc" stroke-width="1.0" stroke-linecap="butt" d="M142.5 25.5L142.5 332.5" fill-rule="nonzero"/><path stroke="#cccccc" stroke-width="1.0" stroke-linecap="butt" d="M205.5 25.5L205.5 332.5" fill-rule="nonzero"/><path stroke="#cccccc" stroke-width="1.0" stroke-linecap="butt" d="M267.5 25.5L267.5 332.5" fill-rule="nonzero"/><path stroke="#cccccc" stroke-width="1.0" stroke-linecap="butt" d="M330.5 25.5L330.5 332.5" fill-rule="nonzero"/><path stroke="#cccccc" stroke-width="1.0" stroke-linecap="butt" d="M393.5 25.5L393.5 332.5" fill-rule="nonzero"/><path stroke="#cccccc" stroke-width="1.0" stroke-linecap="butt" d="M456.5 25.5L456.5 332.5" fill-rule="nonzero"/><path stroke="#cccccc" stroke-width="1.0" stroke-linecap="butt" d="M518.5 25.5L518.5 332.5" fill-rule="nonzero"/><path stroke="#cccccc" stroke-width="1.0" stroke-linecap="butt" d="M581.5 25.5L581.5 332.5" fill-rule="nonzero"/><path stroke="#333333" stroke-width="1.0" stroke-linecap="butt" d="M48.5 332.5L581.5 332.5" fill-rule="nonzero"/><path stroke="#cccccc" stroke-width="1.0" stroke-linecap="butt" d="M48.5 255.5L581.5 255.5" fill-rule="nonzero"/><path stroke="#cccccc" stroke-width="1.0" stroke-linecap="butt" d="M48.5 179.5L581.5 179.5" fill-rule="nonzero"/><path stroke="#cccccc" stroke-width="1.0" stroke-linecap="butt" d="M48.5 102.5L581.5 102.5" fill-rule="nonzero"/><path stroke="#cccccc" stroke-width="1.0" stroke-linecap="butt" d="M48.5 25.5L581.5 25.5" fill-rule="nonzero"/><clipPath id="id_0"><path d="M48.55 25.55L581.45 25.55L581.45 332.45L48.55 332.45L48.55 25.55Z" clip-rule="nonzero"/></clipPath><path stroke="#4285f4" stroke-width="2.0" stroke-linecap="butt" clip-path="url(#id_0)" d="M48.55 61.36078L79.89706 93.95904L111.24412 123.51346L142.59117 150.19568L173.93823 174.1794L205.2853 195.63931L236.63235 214.75018L267.9794 231.68562L299.32648 246.61702L330.67352 259.7124L362.0206 271.13528L393.36765 281.04367L424.7147 289.58908L456.06177 296.91556L487.4088 303.15915L518.75586 308.44708L550.10297 312.89746L581.45 316.61896" fill-rule="nonzero"/><path fill="#000000" fill-opacity="0.0" clip-path="url(#id_0)" d="M51.55 61.36078C51.55 63.017635 50.206856 64.36078 48.55 64.36078C46.893147 64.36078 45.55 63.017635 45.55 61.36078C45.55 59.703926 46.893147 58.36078 48.55 58.36078C50.206856 58.36078 51.55 59.703926 51.55 61.36078Z" fill-rule="nonzero"/><path fill="#000000" fill-opacity="0.0" clip-path="url(#id_0)" d="M82.89706 93.95904C82.89706 95.61589 81.55391 96.95904 79.89706 96.95904C78.240204 96.95904 76.89706 95.61589 76.89706 93.95904C76.89706 92.302185 78.240204 90.95904 79.89706 90.95904C81.55391 90.95904 82.89706 92.302185 82.89706 93.95904Z" fill-rule="nonzero"/><path fill="#000000" fill-opacity="0.0" clip-path="url(#id_0)" d="M114.24412 123.51346C114.24412 125.17031 112.90097 126.51346 111.24412 126.51346C109.587265 126.51346 108.24412 125.17031 108.24412 123.51346C108.24412 121.856606 109.587265 120.51346 111.24412 120.51346C112.90097 120.51346 114.24412 121.856606 114.24412 123.51346Z" fill-rule="nonzero"/><path fill="#000000" fill-opacity="0.0" clip-path="url(#id_0)" d="M145.59117 150.19568C145.59117 151.85254 144.24803 153.19568 142.59117 153.19568C140.93433 153.19568 139.59117 151.85254 139.59117 150.19568C139.59117 148.53883 140.93433 147.19568 142.59117 147.19568C144.24803 147.19568 145.59117 148.53883 145.59117 150.19568Z" fill-rule="nonzero"/><path fill="#000000" fill-opacity="0.0" clip-path="url(#id_0)" d="M176.93823 174.1794C176.93823 175.83624 175.5951 177.1794 173.93823 177.1794C172.28139 177.1794 170.93823 175.83624 170.93823 174.1794C170.93823 172.52254 172.28139 171.1794 173.93823 171.1794C175.5951 171.1794 176.93823 172.52254 176.93823 174.1794Z" fill-rule="nonzero"/><path fill="#000000" fill-opacity="0.0" clip-path="url(#id_0)" d="M208.2853 195.63931C208.2853 197.29617 206.94215 198.63931 205.2853 198.63931C203.62843 198.63931 202.2853 197.29617 202.2853 195.63931C202.2853 193.98245 203.62843 192.63931 205.2853 192.63931C206.94215 192.63931 208.2853 193.98245 208.2853 195.63931Z" fill-rule="nonzero"/><path fill="#000000" fill-opacity="0.0" clip-path="url(#id_0)" d="M239.63235 214.75018C239.63235 216.40703 238.2892 217.75018 236.63235 217.75018C234.9755 217.75018 233.63235 216.40703 233.63235 214.75018C233.63235 213.09332 234.9755 211.75018 236.63235 211.75018C238.2892 211.75018 239.63235 213.09332 239.63235 214.75018Z" fill-rule="nonzero"/><path fill="#000000" fill-opacity="0.0" clip-path="url(#id_0)" d="M270.9794 231.68562C270.9794 233.34247 269.63626 234.68562 267.9794 234.68562C266.32257 234.68562 264.9794 233.34247 264.9794 231.68562C264.9794 230.02876 266.32257 228.68562 267.9794 228.68562C269.63626 228.68562 270.9794 230.02876 270.9794 231.68562Z" fill-rule="nonzero"/><path fill="#000000" fill-opacity="0.0" clip-path="url(#id_0)" d="M302.32648 246.61702C302.32648 248.27388 300.98334 249.61702 299.32648 249.61702C297.66962 249.61702 296.32648 248.27388 296.32648 246.61702C296.32648 244.96017 297.66962 243.61702 299.32648 243.61702C300.98334 243.61702 302.32648 244.96017 302.32648 246.61702Z" fill-rule="nonzero"/><path fill="#000000" fill-opacity="0.0" clip-path="url(#id_0)" d="M333.67352 259.7124C333.67352 261.36926 332.33038 262.7124 330.67352 262.7124C329.01666 262.7124 327.67352 261.36926 327.67352 259.7124C327.67352 258.05554 329.01666 256.7124 330.67352 256.7124C332.33038 256.7124 333.67352 258.05554 333.67352 259.7124Z" fill-rule="nonzero"/><path fill="#000000" fill-opacity="0.0" clip-path="url(#id_0)" d="M365.0206 271.13528C365.0206 272.79214 363.67743 274.13528 362.0206 274.13528C360.36374 274.13528 359.0206 272.79214 359.0206 271.13528C359.0206 269.47842 360.36374 268.13528 362.0206 268.13528C363.67743 268.13528 365.0206 269.47842 365.0206 271.13528Z" fill-rule="nonzero"/><path fill="#000000" fill-opacity="0.0" clip-path="url(#id_0)" d="M396.36765 281.04367C396.36765 282.70053 395.0245 284.04367 393.36765 284.04367C391.7108 284.04367 390.36765 282.70053 390.36765 281.04367C390.36765 279.3868 391.7108 278.04367 393.36765 278.04367C395.0245 278.04367 396.36765 279.3868 396.36765 281.04367Z" fill-rule="nonzero"/><path fill="#000000" fill-opacity="0.0" clip-path="url(#id_0)" d="M427.7147 289.58908C427.7147 291.2459 426.37155 292.58908 424.7147 292.58908C423.05786 292.58908 421.7147 291.2459 421.7147 289.58908C421.7147 287.93222 423.05786 286.58908 424.7147 286.58908C426.37155 286.58908 427.7147 287.93222 427.7147 289.58908Z" fill-rule="nonzero"/><path fill="#000000" fill-opacity="0.0" clip-path="url(#id_0)" d="M459.06177 296.91556C459.06177 298.57242 457.71863 299.91556 456.06177 299.91556C454.4049 299.91556 453.06177 298.57242 453.06177 296.91556C453.06177 295.2587 454.4049 293.91556 456.06177 293.91556C457.71863 293.91556 459.06177 295.2587 459.06177 296.91556Z" fill-rule="nonzero"/><path fill="#000000" fill-opacity="0.0" clip-path="url(#id_0)" d="M490.4088 303.15915C490.4088 304.816 489.06567 306.15915 487.4088 306.15915C485.75198 306.15915 484.4088 304.816 484.4088 303.15915C484.4088 301.5023 485.75198 300.15915 487.4088 300.15915C489.06567 300.15915 490.4088 301.5023 490.4088 303.15915Z" fill-rule="nonzero"/><path fill="#000000" fill-opacity="0.0" clip-path="url(#id_0)" d="M521.75586 308.44708C521.75586 310.10394 520.4127 311.44708 518.75586 311.44708C517.099 311.44708 515.75586 310.10394 515.75586 308.44708C515.75586 306.79022 517.099 305.44708 518.75586 305.44708C520.4127 305.44708 521.75586 306.79022 521.75586 308.44708Z" fill-rule="nonzero"/><path fill="#000000" fill-opacity="0.0" clip-path="url(#id_0)" d="M553.10297 312.89746C553.10297 314.55432 551.75977 315.89746 550.10297 315.89746C548.4461 315.89746 547.10297 314.55432 547.10297 312.89746C547.10297 311.24063 548.4461 309.89746 550.10297 309.89746C551.75977 309.89746 553.10297 311.24063 553.10297 312.89746Z" fill-rule="nonzero"/><path fill="#000000" fill-opacity="0.0" clip-path="url(#id_0)" d="M584.45 316.61896C584.45 318.27582 583.1069 319.61896 581.45 319.61896C579.79315 319.61896 578.45 318.27582 578.45 316.61896C578.45 314.96213 579.79315 313.61896 581.45 313.61896C583.1069 313.61896 584.45 314.96213 584.45 316.61896Z" fill-rule="nonzero"/><path fill="#000000" d="M19.05 332.21564Q19.05 330.6844 19.3625 329.7625Q19.675 328.825 20.284374 328.325Q20.909374 327.825 21.846874 327.825Q22.534374 327.825 23.05 328.10626Q23.58125 328.3875 23.925 328.91876Q24.26875 329.4344 24.45625 330.1844Q24.64375 330.9344 24.64375 332.21564Q24.64375 333.73126 24.33125 334.65314Q24.034374 335.575 23.409374 336.09064Q22.8 336.59064 21.846874 336.59064Q20.6125 336.59064 19.89375 335.7Q19.05 334.6375 19.05 332.21564ZM20.128124 332.21564Q20.128124 334.325 20.628124 335.02814Q21.128124 335.73126 21.846874 335.73126Q22.58125 335.73126 23.065624 335.02814Q23.565624 334.325 23.565624 332.21564Q23.565624 330.09064 23.065624 329.40314Q22.58125 328.7 21.83125 328.7Q21.1125 328.7 20.675 329.3094Q20.128124 330.09064 20.128124 332.21564ZM26.64375 336.45L26.64375 335.2469L27.846874 335.2469L27.846874 336.45L26.64375 336.45ZM29.05 332.21564Q29.05 330.6844 29.3625 329.7625Q29.675 328.825 30.284374 328.325Q30.909374 327.825 31.846874 327.825Q32.534374 327.825 33.05 328.10626Q33.58125 328.3875 33.925 328.91876Q34.26875 329.4344 34.45625 330.1844Q34.64375 330.9344 34.64375 332.21564Q34.64375 333.73126 34.33125 334.65314Q34.034374 335.575 33.409374 336.09064Q32.8 336.59064 31.846874 336.59064Q30.6125 336.59064 29.89375 335.7Q29.05 334.6375 29.05 332.21564ZM30.128124 332.21564Q30.128124 334.325 30.628124 335.02814Q31.128124 335.73126 31.846874 335.73126Q32.58125 335.73126 33.065624 335.02814Q33.565624 334.325 33.565624 332.21564Q33.565624 330.09064 33.065624 329.40314Q32.58125 328.7 31.83125 328.7Q31.1125 328.7 30.675 329.3094Q30.128124 330.09064 30.128124 332.21564ZM36.05 332.21564Q36.05 330.6844 36.3625 329.7625Q36.675 328.825 37.284374 328.325Q37.909374 327.825 38.846874 327.825Q39.534374 327.825 40.05 328.10626Q40.58125 328.3875 40.925 328.91876Q41.26875 329.4344 41.45625 330.1844Q41.64375 330.9344 41.64375 332.21564Q41.64375 333.73126 41.33125 334.65314Q41.034374 335.575 40.409374 336.09064Q39.8 336.59064 38.846874 336.59064Q37.6125 336.59064 36.89375 335.7Q36.05 334.6375 36.05 332.21564ZM37.128124 332.21564Q37.128124 334.325 37.628124 335.02814Q38.128124 335.73126 38.846874 335.73126Q39.58125 335.73126 40.065624 335.02814Q40.565624 334.325 40.565624 332.21564Q40.565624 330.09064 40.065624 329.40314Q39.58125 328.7 38.83125 328.7Q38.1125 328.7 37.675 329.3094Q37.128124 330.09064 37.128124 332.21564Z" fill-rule="nonzero"/><path fill="#000000" d="M19.05 255.49063Q19.05 253.95938 19.3625 253.0375Q19.675 252.1 20.284374 251.6Q20.909374 251.1 21.846874 251.1Q22.534374 251.1 23.05 251.38126Q23.58125 251.6625 23.925 252.19376Q24.26875 252.70938 24.45625 253.45938Q24.64375 254.20938 24.64375 255.49063Q24.64375 257.00626 24.33125 257.92813Q24.034374 258.85 23.409374 259.36563Q22.8 259.86563 21.846874 259.86563Q20.6125 259.86563 19.89375 258.975Q19.05 257.9125 19.05 255.49063ZM20.128124 255.49063Q20.128124 257.6 20.628124 258.30313Q21.128124 259.00626 21.846874 259.00626Q22.58125 259.00626 23.065624 258.30313Q23.565624 257.6 23.565624 255.49063Q23.565624 253.36563 23.065624 252.67813Q22.58125 251.975 21.83125 251.975Q21.1125 251.975 20.675 252.58438Q20.128124 253.36563 20.128124 255.49063ZM26.64375 259.725L26.64375 258.52188L27.846874 258.52188L27.846874 259.725L26.64375 259.725ZM34.596874 258.70938L34.596874 259.725L28.909374 259.725Q28.909374 259.35 29.034374 258.99063Q29.253124 258.4125 29.721874 257.85Q30.20625 257.2875 31.1125 256.55313Q32.51875 255.39688 33.003124 254.725Q33.503124 254.05313 33.503124 253.45938Q33.503124 252.83438 33.05 252.4125Q32.596874 251.975 31.878124 251.975Q31.1125 251.975 30.659374 252.42813Q30.20625 252.88126 30.190624 253.69376L29.1125 253.58438Q29.221874 252.36563 29.940624 251.74063Q30.675 251.1 31.909374 251.1Q33.14375 251.1 33.8625 251.7875Q34.58125 252.475 34.58125 253.49063Q34.58125 254.00626 34.3625 254.50626Q34.159374 254.99063 33.659374 255.55313Q33.175 256.1 32.05 257.05313Q31.096874 257.85 30.815624 258.14688Q30.55 258.42813 30.378124 258.70938L34.596874 258.70938ZM36.05 257.475L37.159374 257.38126Q37.284374 258.19376 37.721874 258.6Q38.175 259.00626 38.815624 259.00626Q39.565624 259.00626 40.096874 258.42813Q40.628124 257.85 40.628124 256.9125Q40.628124 256.00626 40.1125 255.49063Q39.6125 254.95938 38.784374 254.95938Q38.284374 254.95938 37.8625 255.19376Q37.45625 255.42813 37.221874 255.7875L36.2375 255.6625L37.065624 251.25626L41.346874 251.25626L41.346874 252.25626L37.909374 252.25626L37.45625 254.56876Q38.221874 254.02188 39.065624 254.02188Q40.190624 254.02188 40.95625 254.80313Q41.7375 255.58438 41.7375 256.81876Q41.7375 257.975 41.065624 258.83438Q40.2375 259.86563 38.815624 259.86563Q37.64375 259.86563 36.89375 259.20938Q36.159374 258.55313 36.05 257.475Z" fill-rule="nonzero"/><path fill="#000000" d="M19.05 178.76562Q19.05 177.23438 19.3625 176.3125Q19.675 175.375 20.284374 174.875Q20.909374 174.375 21.846874 174.375Q22.534374 174.375 23.05 174.65625Q23.58125 174.9375 23.925 175.46875Q24.26875 175.98438 24.45625 176.73438Q24.64375 177.48438 24.64375 178.76562Q24.64375 180.28125 24.33125 181.20312Q24.034374 182.125 23.409374 182.64062Q22.8 183.14062 21.846874 183.14062Q20.6125 183.14062 19.89375 182.25Q19.05 181.1875 19.05 178.76562ZM20.128124 178.76562Q20.128124 180.875 20.628124 181.57812Q21.128124 182.28125 21.846874 182.28125Q22.58125 182.28125 23.065624 181.57812Q23.565624 180.875 23.565624 178.76562Q23.565624 176.64062 23.065624 175.95312Q22.58125 175.25 21.83125 175.25Q21.1125 175.25 20.675 175.85938Q20.128124 176.64062 20.128124 178.76562ZM26.64375 183.0L26.64375 181.79688L27.846874 181.79688L27.846874 183.0L26.64375 183.0ZM29.05 180.75L30.159374 180.65625Q30.284374 181.46875 30.721874 181.875Q31.175 182.28125 31.815624 182.28125Q32.565624 182.28125 33.096874 181.70312Q33.628124 181.125 33.628124 180.1875Q33.628124 179.28125 33.1125 178.76562Q32.6125 178.23438 31.784374 178.23438Q31.284374 178.23438 30.8625 178.46875Q30.45625 178.70312 30.221874 179.0625L29.2375 178.9375L30.065624 174.53125L34.346874 174.53125L34.346874 175.53125L30.909374 175.53125L30.45625 177.84375Q31.221874 177.29688 32.065624 177.29688Q33.190624 177.29688 33.95625 178.07812Q34.7375 178.85938 34.7375 180.09375Q34.7375 181.25 34.065624 182.10938Q33.2375 183.14062 31.815624 183.14062Q30.64375 183.14062 29.89375 182.48438Q29.159374 181.82812 29.05 180.75ZM36.05 178.76562Q36.05 177.23438 36.3625 176.3125Q36.675 175.375 37.284374 174.875Q37.909374 174.375 38.846874 174.375Q39.534374 174.375 40.05 174.65625Q40.58125 174.9375 40.925 175.46875Q41.26875 175.98438 41.45625 176.73438Q41.64375 177.48438 41.64375 178.76562Q41.64375 180.28125 41.33125 181.20312Q41.034374 182.125 40.409374 182.64062Q39.8 183.14062 38.846874 183.14062Q37.6125 183.14062 36.89375 182.25Q36.05 181.1875 36.05 178.76562ZM37.128124 178.76562Q37.128124 180.875 37.628124 181.57812Q38.128124 182.28125 38.846874 182.28125Q39.58125 182.28125 40.065624 181.57812Q40.565624 180.875 40.565624 178.76562Q40.565624 176.64062 40.065624 175.95312Q39.58125 175.25 38.83125 175.25Q38.1125 175.25 37.675 175.85938Q37.128124 176.64062 37.128124 178.76562Z" fill-rule="nonzero"/><path fill="#000000" d="M19.05 102.04063Q19.05 100.50938 19.3625 99.5875Q19.675 98.65 20.284374 98.15Q20.909374 97.65 21.846874 97.65Q22.534374 97.65 23.05 97.93125Q23.58125 98.2125 23.925 98.74375Q24.26875 99.25938 24.45625 100.00938Q24.64375 100.75938 24.64375 102.04063Q24.64375 103.55625 24.33125 104.47813Q24.034374 105.4 23.409374 105.91563Q22.8 106.41563 21.846874 106.41563Q20.6125 106.41563 19.89375 105.525Q19.05 104.4625 19.05 102.04063ZM20.128124 102.04063Q20.128124 104.15 20.628124 104.85313Q21.128124 105.55625 21.846874 105.55625Q22.58125 105.55625 23.065624 104.85313Q23.565624 104.15 23.565624 102.04063Q23.565624 99.91563 23.065624 99.22813Q22.58125 98.525 21.83125 98.525Q21.1125 98.525 20.675 99.13438Q20.128124 99.91563 20.128124 102.04063ZM26.64375 106.275L26.64375 105.07188L27.846874 105.07188L27.846874 106.275L26.64375 106.275ZM29.1125 98.80625L29.1125 97.79063L34.675 97.79063L34.675 98.61875Q33.8625 99.49375 33.05 100.94688Q32.253124 102.38438 31.815624 103.91563Q31.4875 104.99375 31.409374 106.275L30.315624 106.275Q30.33125 105.25938 30.70625 103.82188Q31.096874 102.38438 31.8 101.05625Q32.51875 99.72813 33.33125 98.80625L29.1125 98.80625ZM36.05 104.025L37.159374 103.93125Q37.284374 104.74375 37.721874 105.15Q38.175 105.55625 38.815624 105.55625Q39.565624 105.55625 40.096874 104.97813Q40.628124 104.4 40.628124 103.4625Q40.628124 102.55625 40.1125 102.04063Q39.6125 101.50938 38.784374 101.50938Q38.284374 101.50938 37.8625 101.74375Q37.45625 101.97813 37.221874 102.3375L36.2375 102.2125L37.065624 97.80625L41.346874 97.80625L41.346874 98.80625L37.909374 98.80625L37.45625 101.11875Q38.221874 100.57188 39.065624 100.57188Q40.190624 100.57188 40.95625 101.35313Q41.7375 102.13438 41.7375 103.36875Q41.7375 104.525 41.065624 105.38438Q40.2375 106.41563 38.815624 106.41563Q37.64375 106.41563 36.89375 105.75938Q36.159374 105.10313 36.05 104.025Z" fill-rule="nonzero"/><path fill="#000000" d="M23.01875 29.55L21.971874 29.55L21.971874 22.83125Q21.58125 23.190624 20.95625 23.565624Q20.346874 23.925 19.8625 24.096874L19.8625 23.08125Q20.7375 22.659374 21.39375 22.08125Q22.065624 21.4875 22.346874 20.925L23.01875 20.925L23.01875 29.55ZM26.64375 29.55L26.64375 28.346874L27.846874 28.346874L27.846874 29.55L26.64375 29.55ZM29.05 25.315624Q29.05 23.784374 29.3625 22.8625Q29.675 21.925 30.284374 21.425Q30.909374 20.925 31.846874 20.925Q32.534374 20.925 33.05 21.20625Q33.58125 21.4875 33.925 22.01875Q34.26875 22.534374 34.45625 23.284374Q34.64375 24.034374 34.64375 25.315624Q34.64375 26.83125 34.33125 27.753124Q34.034374 28.675 33.409374 29.190624Q32.8 29.690624 31.846874 29.690624Q30.6125 29.690624 29.89375 28.8Q29.05 27.7375 29.05 25.315624ZM30.128124 25.315624Q30.128124 27.425 30.628124 28.128124Q31.128124 28.83125 31.846874 28.83125Q32.58125 28.83125 33.065624 28.128124Q33.565624 27.425 33.565624 25.315624Q33.565624 23.190624 33.065624 22.503124Q32.58125 21.8 31.83125 21.8Q31.1125 21.8 30.675 22.409374Q30.128124 23.190624 30.128124 25.315624ZM36.05 25.315624Q36.05 23.784374 36.3625 22.8625Q36.675 21.925 37.284374 21.425Q37.909374 20.925 38.846874 20.925Q39.534374 20.925 40.05 21.20625Q40.58125 21.4875 40.925 22.01875Q41.26875 22.534374 41.45625 23.284374Q41.64375 24.034374 41.64375 25.315624Q41.64375 26.83125 41.33125 27.753124Q41.034374 28.675 40.409374 29.190624Q39.8 29.690624 38.846874 29.690624Q37.6125 29.690624 36.89375 28.8Q36.05 27.7375 36.05 25.315624ZM37.128124 25.315624Q37.128124 27.425 37.628124 28.128124Q38.128124 28.83125 38.846874 28.83125Q39.58125 28.83125 40.065624 28.128124Q40.565624 27.425 40.565624 25.315624Q40.565624 23.190624 40.065624 22.503124Q39.58125 21.8 38.83125 21.8Q38.1125 21.8 37.675 22.409374Q37.128124 23.190624 37.128124 25.315624Z" fill-rule="nonzero"/><path fill="#000000" d="M73.86581 349.45L72.81893 349.45L72.81893 342.73126Q72.42831 343.09064 71.80331 343.46564Q71.19393 343.825 70.70956 343.9969L70.70956 342.98126Q71.58456 342.5594 72.24081 341.98126Q72.91268 341.3875 73.19393 340.825L73.86581 340.825L73.86581 349.45ZM76.89706 345.21564Q76.89706 343.6844 77.20956 342.7625Q77.52206 341.825 78.13143 341.325Q78.75643 340.825 79.69393 340.825Q80.38143 340.825 80.89706 341.10626Q81.42831 341.3875 81.77206 341.91876Q82.11581 342.4344 82.30331 343.1844Q82.49081 343.9344 82.49081 345.21564Q82.49081 346.73126 82.17831 347.65314Q81.88143 348.575 81.25643 349.09064Q80.64706 349.59064 79.69393 349.59064Q78.45956 349.59064 77.74081 348.7Q76.89706 347.6375 76.89706 345.21564ZM77.97518 345.21564Q77.97518 347.325 78.47518 348.02814Q78.97518 348.73126 79.69393 348.73126Q80.42831 348.73126 80.91268 348.02814Q81.41268 347.325 81.41268 345.21564Q81.41268 343.09064 80.91268 342.40314Q80.42831 341.7 79.67831 341.7Q78.95956 341.7 78.52206 342.3094Q77.97518 343.09064 77.97518 345.21564ZM89.44393 348.4344L89.44393 349.45L83.75643 349.45Q83.75643 349.075 83.88143 348.71564Q84.10018 348.1375 84.56893 347.575Q85.05331 347.0125 85.95956 346.27814Q87.36581 345.1219 87.85018 344.45Q88.35018 343.77814 88.35018 343.1844Q88.35018 342.5594 87.89706 342.1375Q87.44393 341.7 86.72518 341.7Q85.95956 341.7 85.50643 342.15314Q85.05331 342.60626 85.03768 343.41876L83.95956 343.3094Q84.06893 342.09064 84.78768 341.46564Q85.52206 340.825 86.75643 340.825Q87.99081 340.825 88.70956 341.5125Q89.42831 342.2 89.42831 343.21564Q89.42831 343.73126 89.20956 344.23126Q89.00643 344.71564 88.50643 345.27814Q88.02206 345.825 86.89706 346.77814Q85.94393 347.575 85.66268 347.8719Q85.39706 348.15314 85.22518 348.4344L89.44393 348.4344Z" fill-rule="nonzero"/><path fill="#000000" d="M136.55992 349.45L135.51305 349.45L135.51305 342.73126Q135.12242 343.09064 134.49742 343.46564Q133.88805 343.825 133.40367 343.9969L133.40367 342.98126Q134.27867 342.5594 134.93492 341.98126Q135.6068 341.3875 135.88805 340.825L136.55992 340.825L136.55992 349.45ZM139.59117 345.21564Q139.59117 343.6844 139.90367 342.7625Q140.21617 341.825 140.82555 341.325Q141.45055 340.825 142.38805 340.825Q143.07555 340.825 143.59117 341.10626Q144.12242 341.3875 144.46617 341.91876Q144.80992 342.4344 144.99742 343.1844Q145.18492 343.9344 145.18492 345.21564Q145.18492 346.73126 144.87242 347.65314Q144.57555 348.575 143.95055 349.09064Q143.34117 349.59064 142.38805 349.59064Q141.15367 349.59064 140.43492 348.7Q139.59117 347.6375 139.59117 345.21564ZM140.6693 345.21564Q140.6693 347.325 141.1693 348.02814Q141.6693 348.73126 142.38805 348.73126Q143.12242 348.73126 143.6068 348.02814Q144.1068 347.325 144.1068 345.21564Q144.1068 343.09064 143.6068 342.40314Q143.12242 341.7 142.37242 341.7Q141.65367 341.7 141.21617 342.3094Q140.6693 343.09064 140.6693 345.21564ZM149.96617 349.45L149.96617 347.3875L146.24742 347.3875L146.24742 346.41876L150.1693 340.85626L151.02867 340.85626L151.02867 346.41876L152.18492 346.41876L152.18492 347.3875L151.02867 347.3875L151.02867 349.45L149.96617 349.45ZM149.96617 346.41876L149.96617 342.5594L147.27867 346.41876L149.96617 346.41876Z" fill-rule="nonzero"/><path fill="#000000" d="M199.25404 349.45L198.20717 349.45L198.20717 342.73126Q197.81654 343.09064 197.19154 343.46564Q196.58217 343.825 196.0978 343.9969L196.0978 342.98126Q196.9728 342.5594 197.62904 341.98126Q198.30092 341.3875 198.58217 340.825L199.25404 340.825L199.25404 349.45ZM202.2853 345.21564Q202.2853 343.6844 202.5978 342.7625Q202.9103 341.825 203.51967 341.325Q204.14467 340.825 205.08217 340.825Q205.76967 340.825 206.2853 341.10626Q206.81654 341.3875 207.1603 341.91876Q207.50404 342.4344 207.69154 343.1844Q207.87904 343.9344 207.87904 345.21564Q207.87904 346.73126 207.56654 347.65314Q207.26967 348.575 206.64467 349.09064Q206.0353 349.59064 205.08217 349.59064Q203.8478 349.59064 203.12904 348.7Q202.2853 347.6375 202.2853 345.21564ZM203.36342 345.21564Q203.36342 347.325 203.86342 348.02814Q204.36342 348.73126 205.08217 348.73126Q205.81654 348.73126 206.30092 348.02814Q206.80092 347.325 206.80092 345.21564Q206.80092 343.09064 206.30092 342.40314Q205.81654 341.7 205.06654 341.7Q204.3478 341.7 203.9103 342.3094Q203.36342 343.09064 203.36342 345.21564ZM214.75404 342.96564L213.70717 343.04376Q213.56654 342.41876 213.31654 342.1375Q212.87904 341.6844 212.25404 341.6844Q211.75404 341.6844 211.36342 341.96564Q210.87904 342.34064 210.58217 343.04376Q210.30092 343.73126 210.2853 345.0125Q210.6603 344.4344 211.20717 344.15314Q211.76967 343.8719 212.37904 343.8719Q213.42592 343.8719 214.1603 344.65314Q214.9103 345.4344 214.9103 346.65314Q214.9103 347.46564 214.55092 348.16876Q214.20717 348.85626 213.5978 349.23126Q212.98842 349.59064 212.2228 349.59064Q210.89467 349.59064 210.06654 348.6219Q209.23842 347.65314 209.23842 345.4344Q209.23842 342.9344 210.1603 341.8094Q210.95717 340.825 212.31654 340.825Q213.33217 340.825 213.9728 341.40314Q214.62904 341.96564 214.75404 342.96564ZM210.45717 346.66876Q210.45717 347.21564 210.67592 347.71564Q210.9103 348.2 211.31654 348.46564Q211.73842 348.73126 212.20717 348.73126Q212.86342 348.73126 213.3478 348.2Q213.83217 347.65314 213.83217 346.73126Q213.83217 345.84064 213.3478 345.325Q212.87904 344.8094 212.1603 344.8094Q211.44154 344.8094 210.94154 345.325Q210.45717 345.84064 210.45717 346.66876Z" fill-rule="nonzero"/><path fill="#000000" d="M261.94815 349.45L260.90128 349.45L260.90128 342.73126Q260.51065 343.09064 259.88565 343.46564Q259.27628 343.825 258.7919 343.9969L258.7919 342.98126Q259.6669 342.5594 260.32315 341.98126Q260.99503 341.3875 261.27628 340.825L261.94815 340.825L261.94815 349.45ZM264.9794 345.21564Q264.9794 343.6844 265.2919 342.7625Q265.6044 341.825 266.21378 341.325Q266.83878 340.825 267.77628 340.825Q268.46378 340.825 268.9794 341.10626Q269.51065 341.3875 269.8544 341.91876Q270.19815 342.4344 270.38565 343.1844Q270.57315 343.9344 270.57315 345.21564Q270.57315 346.73126 270.26065 347.65314Q269.96378 348.575 269.33878 349.09064Q268.7294 349.59064 267.77628 349.59064Q266.5419 349.59064 265.82315 348.7Q264.9794 347.6375 264.9794 345.21564ZM266.05753 345.21564Q266.05753 347.325 266.55753 348.02814Q267.05753 348.73126 267.77628 348.73126Q268.51065 348.73126 268.99503 348.02814Q269.49503 347.325 269.49503 345.21564Q269.49503 343.09064 268.99503 342.40314Q268.51065 341.7 267.76065 341.7Q267.0419 341.7 266.6044 342.3094Q266.05753 343.09064 266.05753 345.21564ZM273.6044 344.79376Q272.94815 344.54376 272.62003 344.10626Q272.30753 343.65314 272.30753 343.04376Q272.30753 342.10626 272.9794 341.46564Q273.6669 340.825 274.77628 340.825Q275.90128 340.825 276.58878 341.48126Q277.27628 342.1375 277.27628 343.075Q277.27628 343.66876 276.96378 344.10626Q276.65128 344.54376 276.01065 344.79376Q276.80753 345.04376 277.21378 345.6219Q277.62003 346.2 277.62003 346.9969Q277.62003 348.09064 276.83878 348.84064Q276.07315 349.59064 274.7919 349.59064Q273.52628 349.59064 272.74503 348.84064Q271.96378 348.09064 271.96378 346.96564Q271.96378 346.1219 272.38565 345.5594Q272.82315 344.9969 273.6044 344.79376ZM273.38565 342.9969Q273.38565 343.60626 273.77628 343.9969Q274.18253 344.3875 274.80753 344.3875Q275.4169 344.3875 275.80753 344.0125Q276.19815 343.6219 276.19815 343.0594Q276.19815 342.48126 275.7919 342.09064Q275.38565 341.6844 274.7919 341.6844Q274.18253 341.6844 273.77628 342.075Q273.38565 342.46564 273.38565 342.9969ZM273.05753 346.96564Q273.05753 347.41876 273.26065 347.84064Q273.4794 348.2625 273.90128 348.4969Q274.32315 348.73126 274.80753 348.73126Q275.55753 348.73126 276.0419 348.2469Q276.5419 347.7625 276.5419 347.0125Q276.5419 346.2469 276.0419 345.7469Q275.5419 345.2469 274.77628 345.2469Q274.02628 345.2469 273.5419 345.7469Q273.05753 346.23126 273.05753 346.96564Z" fill-rule="nonzero"/><path fill="#000000" d="M324.64227 349.45L323.5954 349.45L323.5954 342.73126Q323.20477 343.09064 322.57977 343.46564Q321.9704 343.825 321.48602 343.9969L321.48602 342.98126Q322.36102 342.5594 323.01727 341.98126Q323.68915 341.3875 323.9704 340.825L324.64227 340.825L324.64227 349.45ZM331.64227 349.45L330.5954 349.45L330.5954 342.73126Q330.20477 343.09064 329.57977 343.46564Q328.9704 343.825 328.48602 343.9969L328.48602 342.98126Q329.36102 342.5594 330.01727 341.98126Q330.68915 341.3875 330.9704 340.825L331.64227 340.825L331.64227 349.45ZM334.67352 345.21564Q334.67352 343.6844 334.98602 342.7625Q335.29852 341.825 335.9079 341.325Q336.5329 340.825 337.4704 340.825Q338.1579 340.825 338.67352 341.10626Q339.20477 341.3875 339.54852 341.91876Q339.89227 342.4344 340.07977 343.1844Q340.26727 343.9344 340.26727 345.21564Q340.26727 346.73126 339.95477 347.65314Q339.6579 348.575 339.0329 349.09064Q338.42352 349.59064 337.4704 349.59064Q336.23602 349.59064 335.51727 348.7Q334.67352 347.6375 334.67352 345.21564ZM335.75165 345.21564Q335.75165 347.325 336.25165 348.02814Q336.75165 348.73126 337.4704 348.73126Q338.20477 348.73126 338.68915 348.02814Q339.18915 347.325 339.18915 345.21564Q339.18915 343.09064 338.68915 342.40314Q338.20477 341.7 337.45477 341.7Q336.73602 341.7 336.29852 342.3094Q335.75165 343.09064 335.75165 345.21564Z" fill-rule="nonzero"/><path fill="#000000" d="M387.3364 349.45L386.28952 349.45L386.28952 342.73126Q385.8989 343.09064 385.2739 343.46564Q384.66452 343.825 384.18015 343.9969L384.18015 342.98126Q385.05515 342.5594 385.7114 341.98126Q386.38327 341.3875 386.66452 340.825L387.3364 340.825L387.3364 349.45ZM394.3364 349.45L393.28952 349.45L393.28952 342.73126Q392.8989 343.09064 392.2739 343.46564Q391.66452 343.825 391.18015 343.9969L391.18015 342.98126Q392.05515 342.5594 392.7114 341.98126Q393.38327 341.3875 393.66452 340.825L394.3364 340.825L394.3364 349.45ZM402.91452 348.4344L402.91452 349.45L397.22702 349.45Q397.22702 349.075 397.35202 348.71564Q397.57077 348.1375 398.03952 347.575Q398.5239 347.0125 399.43015 346.27814Q400.8364 345.1219 401.32077 344.45Q401.82077 343.77814 401.82077 343.1844Q401.82077 342.5594 401.36765 342.1375Q400.91452 341.7 400.19577 341.7Q399.43015 341.7 398.97702 342.15314Q398.5239 342.60626 398.50827 343.41876L397.43015 343.3094Q397.53952 342.09064 398.25827 341.46564Q398.99265 340.825 400.22702 340.825Q401.4614 340.825 402.18015 341.5125Q402.8989 342.2 402.8989 343.21564Q402.8989 343.73126 402.68015 344.23126Q402.47702 344.71564 401.97702 345.27814Q401.49265 345.825 400.36765 346.77814Q399.41452 347.575 399.13327 347.8719Q398.86765 348.15314 398.69577 348.4344L402.91452 348.4344Z" fill-rule="nonzero"/><path fill="#000000" d="M450.03052 349.45L448.98364 349.45L448.98364 342.73126Q448.59302 343.09064 447.96802 343.46564Q447.35864 343.825 446.87427 343.9969L446.87427 342.98126Q447.74927 342.5594 448.40552 341.98126Q449.0774 341.3875 449.35864 340.825L450.03052 340.825L450.03052 349.45ZM457.03052 349.45L455.98364 349.45L455.98364 342.73126Q455.59302 343.09064 454.96802 343.46564Q454.35864 343.825 453.87427 343.9969L453.87427 342.98126Q454.74927 342.5594 455.40552 341.98126Q456.0774 341.3875 456.35864 340.825L457.03052 340.825L457.03052 349.45ZM463.43677 349.45L463.43677 347.3875L459.71802 347.3875L459.71802 346.41876L463.6399 340.85626L464.49927 340.85626L464.49927 346.41876L465.65552 346.41876L465.65552 347.3875L464.49927 347.3875L464.49927 349.45L463.43677 349.45ZM463.43677 346.41876L463.43677 342.5594L460.74927 346.41876L463.43677 346.41876Z" fill-rule="nonzero"/><path fill="#000000" d="M512.7246 349.45L511.67776 349.45L511.67776 342.73126Q511.28714 343.09064 510.66214 343.46564Q510.05276 343.825 509.5684 343.9969L509.5684 342.98126Q510.4434 342.5594 511.09964 341.98126Q511.7715 341.3875 512.05273 340.825L512.7246 340.825L512.7246 349.45ZM519.7246 349.45L518.67773 349.45L518.67773 342.73126Q518.2871 343.09064 517.6621 343.46564Q517.05273 343.825 516.56836 343.9969L516.56836 342.98126Q517.44336 342.5594 518.0996 341.98126Q518.7715 341.3875 519.05273 340.825L519.7246 340.825L519.7246 349.45ZM528.2246 342.96564L527.17773 343.04376Q527.0371 342.41876 526.7871 342.1375Q526.3496 341.6844 525.7246 341.6844Q525.2246 341.6844 524.834 341.96564Q524.3496 342.34064 524.05273 343.04376Q523.7715 343.73126 523.75586 345.0125Q524.13086 344.4344 524.67773 344.15314Q525.24023 343.8719 525.8496 343.8719Q526.8965 343.8719 527.63086 344.65314Q528.38086 345.4344 528.38086 346.65314Q528.38086 347.46564 528.0215 348.16876Q527.67773 348.85626 527.06836 349.23126Q526.459 349.59064 525.69336 349.59064Q524.36523 349.59064 523.5371 348.6219Q522.709 347.65314 522.709 345.4344Q522.709 342.9344 523.63086 341.8094Q524.42773 340.825 525.7871 340.825Q526.80273 340.825 527.44336 341.40314Q528.0996 341.96564 528.2246 342.96564ZM523.92773 346.66876Q523.92773 347.21564 524.1465 347.71564Q524.38086 348.2 524.7871 348.46564Q525.209 348.73126 525.67773 348.73126Q526.334 348.73126 526.81836 348.2Q527.30273 347.65314 527.30273 346.73126Q527.30273 345.84064 526.81836 345.325Q526.3496 344.8094 525.63086 344.8094Q524.9121 344.8094 524.4121 345.325Q523.92773 345.84064 523.92773 346.66876Z" fill-rule="nonzero"/><path fill="#000000" d="M575.41876 349.45L574.3719 349.45L574.3719 342.73126Q573.98126 343.09064 573.35626 343.46564Q572.7469 343.825 572.2625 343.9969L572.2625 342.98126Q573.1375 342.5594 573.79376 341.98126Q574.46564 341.3875 574.7469 340.825L575.41876 340.825L575.41876 349.45ZM582.41876 349.45L581.3719 349.45L581.3719 342.73126Q580.98126 343.09064 580.35626 343.46564Q579.7469 343.825 579.2625 343.9969L579.2625 342.98126Q580.1375 342.5594 580.79376 341.98126Q581.46564 341.3875 581.7469 340.825L582.41876 340.825L582.41876 349.45ZM587.075 344.79376Q586.41876 344.54376 586.09064 344.10626Q585.77814 343.65314 585.77814 343.04376Q585.77814 342.10626 586.45 341.46564Q587.1375 340.825 588.2469 340.825Q589.3719 340.825 590.0594 341.48126Q590.7469 342.1375 590.7469 343.075Q590.7469 343.66876 590.4344 344.10626Q590.1219 344.54376 589.48126 344.79376Q590.27814 345.04376 590.6844 345.6219Q591.09064 346.2 591.09064 346.9969Q591.09064 348.09064 590.3094 348.84064Q589.54376 349.59064 588.2625 349.59064Q586.9969 349.59064 586.21564 348.84064Q585.4344 348.09064 585.4344 346.96564Q585.4344 346.1219 585.85626 345.5594Q586.29376 344.9969 587.075 344.79376ZM586.85626 342.9969Q586.85626 343.60626 587.2469 343.9969Q587.65314 344.3875 588.27814 344.3875Q588.8875 344.3875 589.27814 344.0125Q589.66876 343.6219 589.66876 343.0594Q589.66876 342.48126 589.2625 342.09064Q588.85626 341.6844 588.2625 341.6844Q587.65314 341.6844 587.2469 342.075Q586.85626 342.46564 586.85626 342.9969ZM586.52814 346.96564Q586.52814 347.41876 586.73126 347.84064Q586.95 348.2625 587.3719 348.4969Q587.79376 348.73126 588.27814 348.73126Q589.02814 348.73126 589.5125 348.2469Q590.0125 347.7625 590.0125 347.0125Q590.0125 346.2469 589.5125 345.7469Q589.0125 345.2469 588.2469 345.2469Q587.4969 345.2469 587.0125 345.7469Q586.52814 346.23126 586.52814 346.96564Z" fill-rule="nonzero"/></svg>