<?xml version="1.0" encoding="UTF-8" standalone="no"?>
<svg
   xmlns:dc="http://purl.org/dc/elements/1.1/"
   xmlns:cc="http://creativecommons.org/ns#"
   xmlns:rdf="http://www.w3.org/1999/02/22-rdf-syntax-ns#"
   xmlns:svg="http://www.w3.org/2000/svg"
   xmlns="http://www.w3.org/2000/svg"
   xmlns:sodipodi="http://sodipodi.sourceforge.net/DTD/sodipodi-0.dtd"
   xmlns:inkscape="http://www.inkscape.org/namespaces/inkscape"
   width="19.166832in"
   height="19.166832in"
   viewBox="0 0 486.83753 486.83753"
   version="1.1"
   id="svg870"
   inkscape:export-filename="/Users/mark/Desktop/logo-circle-white.png"
   inkscape:export-xdpi="96"
   inkscape:export-ydpi="96"
   inkscape:version="1.0.1 (3bc2e813f5, 2020-09-07)"
   sodipodi:docname="logo-circle.svg">
  <defs
     id="defs864" />
  <sodipodi:namedview
     id="base"
     pagecolor="#ffffff"
     bordercolor="#666666"
     borderopacity="1.0"
     inkscape:pageopacity="0.0"
     inkscape:pageshadow="2"
     inkscape:zoom="0.066693424"
     inkscape:cx="4558.4858"
     inkscape:cy="3070.7566"
     inkscape:document-units="mm"
     inkscape:current-layer="layer1"
     inkscape:document-rotation="0"
     showgrid="false"
     inkscape:window-width="1920"
     inkscape:window-height="1147"
     inkscape:window-x="1440"
     inkscape:window-y="25"
     inkscape:window-maximized="0"
     showborder="true"
     inkscape:pagecheckerboard="true"
     fit-margin-top="0"
     fit-margin-left="0"
     fit-margin-right="0"
     fit-margin-bottom="0"
     units="in" />
  <metadata
     id="metadata867">
    <rdf:RDF>
      <cc:Work
         rdf:about="">
        <dc:format>image/svg+xml</dc:format>
        <dc:type
           rdf:resource="http://purl.org/dc/dcmitype/StillImage" />
        <dc:title></dc:title>
      </cc:Work>
    </rdf:RDF>
  </metadata>
  <g
     inkscape:groupmode="layer"
     id="layer3"
     inkscape:label="Background"
     transform="translate(-81.425219,-791.09664)">
    <g
       id="layer2"
       inkscape:label="Layer 2"
       transform="translate(-362.32414,621.75913)"
       style="fill:none;fill-opacity:1;stroke:#8a719e;stroke-opacity:1">
      <rect
         style="fill:none;fill-opacity:1;stroke:#8a719e;stroke-width:35;stroke-linejoin:miter;stroke-miterlimit:4;stroke-dasharray:none;stroke-dashoffset:0;stroke-opacity:1;paint-order:normal"
         id="rect1063-2-0"
         width="451.83752"
         height="451.83752"
         x="461.24936"
         y="186.83751" />
    </g>
  </g>
  <g
     inkscape:label="Layer 1"
     inkscape:groupmode="layer"
     id="layer1"
     transform="translate(127.8908,90.891701)">
    <path
       style="fill:#8a719e;fill-opacity:1;stroke:#8a719e;stroke-width:0.26458300000000001px;stroke-linecap:butt;stroke-linejoin:miter;stroke-opacity:1"
       d="m -61.938677,57.955053 c 2.20078,-25.11596 2.27584,-66.2334404 40.092231,-76.62067 43.21858,-6.74338 54.03694,56.06707 80.73702,159.716077 14.28994,55.47314 29.33991,138.01998 57.803866,136.52085 30.68499,2.04499 41.79799,-63.90197 60.59049,-135.86503 24.5151,-109.846047 41.322,-161.367787 73.4957,-160.817367 42.5418,-0.3033 46.4502,62.68553 49.0016,77.06614 l -9.8691,0.0784 c -5.6817,-22.99303 -11.9065,-45.25136 -37.3506,-41.50698 -31.2255,5.5416 -37.8266,50.70523 -50.7468,101.827657 -7.2211,30.20614 -16.3511,62.92124 -19.0784,75.8232 -23.0988,109.27091 -40.7631,118.44119 -62.92462,119.47706 -41.469726,1.91532 -55.635866,-70.09811 -67.448456,-121.78531 -6.0494,-26.46987 -14.77502,-57.7998 -18.74567,-74.01937 C 16.449614,47.716563 8.3205543,16.121913 -21.846446,16.526433 c -13.44488,2.36464 -27.574901,2.2931 -30.655761,41.50761 z"
       id="path78-1"
       sodipodi:nodetypes="ccscccccccscssccc" />
    <path
       style="fill:#8a719e;fill-opacity:1;stroke:#8a719e;stroke-width:0.28908899999999998px;stroke-linecap:butt;stroke-linejoin:miter;stroke-opacity:1"
       d="M -13.234076,313.20441 H -58.653957 L 19.447284,54.111213 39.284424,124.33771 Z"
       id="path935-4" />
    <path
       style="fill:#8a719e;fill-opacity:1;stroke:#8a719e;stroke-width:0.28953899999999999px;stroke-linecap:butt;stroke-linejoin:miter;stroke-opacity:1"
       d="m 249.30563,313.56393 h 45.5557 l -78.3921,-259.127187 -19.881,70.235707 z"
       id="path935-3-0" />
  </g>
</svg>
